<?xml version="1.0" encoding="iso-8859-1"?>
<!-- Generator: Adobe Illustrator 19.0.0, SVG Export Plug-In . SVG Version: 6.00 Build 0)  -->
<svg xmlns="http://www.w3.org/2000/svg" xmlns:xlink="http://www.w3.org/1999/xlink" version="1.1" id="Capa_1" x="0px" y="0px" viewBox="0 0 112.387 112.387" style="enable-background:new 0 0 112.387 112.387;" xml:space="preserve" width="512px" height="512px">
<g id="coffee1_1_">
	<g>
		<path style="fill-rule:evenodd;clip-rule:evenodd;" d="M44.209,15.347c1.229,0.292,2.625,0.415,2.853,1.712    c-0.417,1.676-1.835,2.352-2.567,3.708c-0.523,1.923-1.733,4.438-0.285,5.992c0.221,0.063,0.561,0.007,0.568,0.285    c2.848,0.374,3.162-1.782,4.279-3.138c0.881-1.594,2.249-2.697,3.141-4.281c0.475-1.594,0.293-3.782,0-5.42    c-0.791-0.827-1.564-1.674-2.282-2.568c-1.062-0.176-1.796-0.68-2.853-0.856c-0.782-0.549-2.089-0.574-2.567-1.426    c0.496-1.977,2.45-2.492,3.423-3.994c1.068-1.405,3.356-1.588,3.136-4.281c-0.519-1.727-2.494-0.869-4.275-0.855    c-2.023,1.593-4.191,3.037-5.993,4.85c-0.444,1.366-1.399,2.214-1.712,3.71c-0.22,2.595,0.91,3.846,1.996,5.135    C41.996,14.516,43.832,14.201,44.209,15.347z M63.038,21.337c-0.499,0.642-0.679,1.605-1.142,2.282    c-0.369,0.774-0.697,1.586-0.574,2.854c0.525,0.334,0.971,0.746,1.432,1.141c3.291-0.349,3.858-3.862,3.135-7.416    c-0.746-1.346-2.558-1.625-2.851-3.424c0.626-0.989,1.876-1.357,1.995-2.854c-1.012-1.212-2.646,0.133-3.711,0.571    c-0.486,1.128-1.094,2.136-0.852,3.993C61.076,19.684,62.634,19.936,63.038,21.337z M29.373,25.617    c0.434,0.803,2.035,0.437,2.283,1.427c0.893,2.183-1.678,4.164-0.572,6.562c0.223,0.064,0.562,0.008,0.572,0.285    c3.56-0.232,3.585-4.618,3.706-7.701c-0.331-0.05-0.309-0.454-0.283-0.858c-0.679-1.222-2.596-1.209-2.854-2.853    c1.303-0.408,1.48-1.942,1.427-3.709c-3.321-0.678-5.296,2.26-5.992,5.137C28.19,24.518,28.24,25.608,29.373,25.617z     M94.989,65.844c-0.347-2.982-1.555-5.101-1.711-8.273c-0.628-0.703-1.202-1.459-1.425-2.568c-0.725-0.704-1.73-1.121-2.283-1.996    c-4.281-0.287-10.004,0.873-12.27-1.426c-0.408-2.972,0.477-6.832-0.284-9.986c-0.608-1.465,1.453-0.26,1.142-1.426    c-0.752-0.199-0.604-1.299-1.426-1.428c-0.178-0.869-1.535-0.557-1.714-1.426c-1.442-0.556-2.469-1.522-3.708-2.282    c-3.447-1.118-6.623-2.505-10.555-3.138c-5.348,0.307-9.151-0.931-14.553-0.572c-8.514,1.093-16.077,3.131-21.964,6.848    c-0.969-0.08-1.642-0.454-2.856-0.285c-1.604,1.63-2.795,3.672-3.709,5.99c-0.045,0.338,0.049,0.811-0.283,0.857    c-0.184,13.117,0.182,25.684,1.711,37.088c-0.03,8.971,0.506,17.377,2.281,24.537c0.406,0.832,1.57,0.904,2.283,1.426    c0.719,0.613,1.494,1.172,2.282,1.711c4.902,1.357,10.31,1.846,15.977,2.283c5.645,0.435,11.586,0.717,17.688,0.57    c5.982-1.053,10.695-3.379,14.838-6.277c1.234-1.613,2.428-3.273,3.707-4.85c0.111-1.502,0.513-2.719,1.426-3.424    c0.003-1.18-0.723-2.707,0-3.709c2.98,0.316,4.816-0.508,6.849-1.141c1.577,0.148,2.688-0.163,3.992-0.286    c1.919-1.124,3.812-2.274,4.564-4.565C94.242,80.819,95.271,73.533,94.989,65.844z M25.948,41.023    c1.928-0.809,4-1.753,6.276-1.425c4.412-2.438,9.826-3.869,17.119-3.425c1.021-0.31,2.217-0.444,3.139-0.854    c2.242,0.251,4.359,0.157,6.562-0.286c3.17,0.06,5.574,0.889,7.7,1.996c2.601,0.636,4.929,1.538,5.991,3.71    c0.188,1.613-1.143,1.71-1.143,3.137c-0.982,0.348-0.952,1.71-2.566,1.428c0.091-0.938,0.658-2.336,0-3.139    c-2.141-1.947-6.405-1.771-9.982-2.283H47.346c-5.862,0.128-10.09,1.892-16.262,1.713c-0.889,0.254-1.328,0.954-2.283,1.141    c-0.389,0.658-0.5,1.592-1.711,1.428c-0.251,0.793-0.357,1.735-0.857,2.281c-1.174-0.153-1.932-0.73-2.566-1.426    c-0.745-0.492-1.443-1.027-1.426-2.283C23.536,42.43,24.617,41.582,25.948,41.023z M65.605,46.729    c-0.148-0.148,0.206-0.364,0.284-0.285C66.037,46.592,65.682,46.809,65.605,46.729z M63.608,47.299    c-0.15-0.146,0.207-0.363,0.286-0.284C64.039,47.161,63.688,47.378,63.608,47.299z M50.77,43.592c1.527,0.184,3.045-0.807,4.28,0    c-0.702,0.533-1.954,0.518-2.852,0.856c-0.919,0.459-1.893,0.234-2.569-0.285C49.425,43.387,50.973,44.365,50.77,43.592z     M56.761,47.869c1.693-0.209,3.222-0.584,5.136-0.57c-2.6,1.525-7.211,2.119-11.127,1.426    C52.037,47.713,54.508,47.9,56.761,47.869z M27.659,105.215c-0.897,0.137-1.112-0.406-1.711-0.57    C26.214,104.035,28.022,104.256,27.659,105.215z M74.162,99.51c-0.35,0.123-0.586,0.365-0.568,0.855    c-1.352,1.41-3.109,2.406-4.85,3.424c-4.523-0.518-10.213,0.262-15.978,0c-7.309-0.334-14.934-0.045-20.542-1.713    c0.76-1.805,2.389-2.746,2.567-5.135c-0.321-1.099-1.223-0.771-2.283-0.57c-0.557,0.486-1.422,0.666-1.707,1.426    c-0.543,0.506-0.887,1.207-1.428,1.713c-0.055,0.633-0.826,1.998-1.428,1.141c-1.615-0.019-0.186-1.814,0.285-2.283    c0.578-0.848,0.883-1.969,1.713-2.566c0.877-1.975,2.794-2.912,3.137-5.422c-1.472-0.877-2.834,0.501-3.707,1.143    c-1.508,0.68-1.696,2.678-3.425,3.138v-3.424c1.644-2.542,3.067-5.302,4.28-8.273c0.386-0.281,0.572-0.763,0.855-1.142    c0.418-0.249,1.104-0.227,0.856-1.141c0.196-0.885-1.635-1.188-1.996-0.572c-0.998,0.051-1.435,0.657-1.713,1.428    c-0.654,0.392-0.918,1.174-1.425,1.711c-0.353,0.246-0.79,1.837-1.144,1.143c0.137-1.175-0.765,0.273-0.854-0.856    c0.417-0.247,0.905-0.428,0.854-1.142v-2.567c1.177-1.679,1.898-3.812,3.139-5.421c0.721-2.039,2.115-3.402,2.855-5.42    c-1.086-1.032-2.73-0.102-3.426,0.855c-0.961,0.75-1.755,1.67-2.282,2.854c-0.945-0.006-0.29-1.613-0.856-1.998    c-0.645,0.592-0.889,1.582-1.141,2.569c-0.807-1.001-0.521-3.093-0.568-4.852c1.025-2.776,1.521-4.792,1.425-8.272    c-0.241-0.674-1.471,0.018-1.712,0.285c-0.623-0.518-0.049-2.234-0.57-2.854v-7.132c4.338,2.11,8.884,3.745,15.976,3.425    c2.059-0.096,4.132-0.518,6.276-0.287c0.607-0.134,0.544,0.406,0.572,0.855c0.229,0.246,0.782,0.17,0.854,0.57    c7.709,0.292,13.286-1.551,17.69-4.563c1.548,0.024,2.37-0.673,3.995-0.571c1.311-0.497,2.25-1.362,3.705-1.711h0.286    c0.96-0.293,0.446,0.887,0.571,1.426c-0.117,0.688,0.523,0.619,0.285,1.426c0.321,0.82,0.059,2.225,0.572,2.855    c0.09,2.19,0.475,4.088,0.854,5.989c0.062,9.188-0.908,21.321-0.284,31.383c0.124,1.96,0.565,3.899,0.856,5.706    C74.662,97.916,74.012,98.313,74.162,99.51z M85.005,89.238c-2.035,0.34-3.755,1-5.991,1.141c-0.832-1.769,0.494-3.629,0.57-5.42    c2.291,0.103,3.717-0.656,5.705-0.855c0.385-0.662,1.148-0.946,0.857-2.283c0.441-0.605,0.822-1.271,1.141-1.997    c-0.09-0.661,0.045-1.095,0.285-1.427c0.332-6.893-1.037-12.087-1.14-18.544c-0.43-1.376-2.493-1.122-3.425-1.997    c-0.475,0.477-1.672,0.227-2.567,0.285c-0.441,0.393-1.712,0.574-1.997,0.285c0.227-0.989-0.426-1.097-0.285-1.996    c2.121-0.123,3.529,0.463,5.419,0.57c1.894,0.166,3.015-0.588,4.563,0c1.525,2.186,1.352,6.068,2.571,8.56    c-0.21,8.025-0.188,14.592,0.284,22.253C89.733,89.02,87.207,88.969,85.005,89.238z M82.723,64.133v5.135    c0.332,3.188,0.488,6.551,0.854,9.699c-0.985,1.105-2.194,1.99-3.993,2.283c0.081-6.072-0.035-11.947-0.285-17.688    c0.64-0.499,2.146-0.138,2.854-0.571C83.01,62.703,82.656,63.626,82.723,64.133z" fill="#FFFFFF"/>
	</g>
</g>
<g>
</g>
<g>
</g>
<g>
</g>
<g>
</g>
<g>
</g>
<g>
</g>
<g>
</g>
<g>
</g>
<g>
</g>
<g>
</g>
<g>
</g>
<g>
</g>
<g>
</g>
<g>
</g>
<g>
</g>
</svg>
