<?xml version="1.0" encoding="iso-8859-1"?>
<!-- Generator: Adobe Illustrator 19.0.0, SVG Export Plug-In . SVG Version: 6.00 Build 0)  -->
<svg xmlns="http://www.w3.org/2000/svg" xmlns:xlink="http://www.w3.org/1999/xlink" version="1.1" id="Capa_1" x="0px" y="0px" viewBox="0 0 112 112" style="enable-background:new 0 0 112 112;" xml:space="preserve" width="512px" height="512px">
<g id="paper-plane_1_">
	<g>
		<path style="fill-rule:evenodd;clip-rule:evenodd;" d="M111.002,12.338c-1.211-1.53-4.118-1.371-5.926-2.303    c-0.424,0.018-0.457,0.422-0.989,0.329c-1.22,0.205-1.929,0.925-2.964,1.317c-0.833,0.702-2.281,0.79-2.961,1.647    c-2.333,0.629-4.311,1.614-6.257,2.634c-2.378,0.581-4.148,1.778-6.584,2.304c-1.945,1.018-4.317,1.609-6.254,2.634    c-4.744,1.186-8.475,3.378-13.168,4.61c-4.463,1.462-8.635,3.219-13.5,4.279c-0.807,0.618-2.257,0.599-3.294,0.989    c-1.063,0.473-2.441,0.63-3.62,0.987c-2.212,0.752-4.314,1.611-6.916,1.976c-1.785,1.178-4.744,1.182-6.583,2.305    c-1.531-0.106-2.2,0.655-3.623,0.658c-0.84,0.694-2.559,0.514-3.293,1.317c-5.141,0.782-8.889,2.964-13.827,3.951    c-1.059,0.367-1.952,0.901-3.29,0.988c-0.736,0.803-2.454,0.624-3.295,1.317c-1.478,0.059-2.45,0.622-2.961,1.645    c-0.878,0.662-1.943,1.133-1.646,2.965c2.017,2.261,5.758,2.797,8.558,4.279c2.521,1.758,6.17,2.389,8.891,3.951    c3.435,0.844,5.804,2.753,9.219,3.623c1.05,1.036,2.897,1.269,3.947,2.304c1.017,0.086,1.481,0.716,2.307,0.987    c0.293,0.807,1.838,0.358,1.647,1.647c-0.483,6.103-1.072,12.097-1.32,18.436c0.242,3.533-0.542,6.044-0.328,9.548v4.94    c-0.361,2.116,1.146,2.366,1.976,3.292c4.301,0.573,5.072-2.391,7.241-3.951c0.523-1.343,1.714-2.018,2.308-3.293    c0.666-1.309,1.783-2.166,2.302-3.621c2.224-1.947,4.309-4.032,6.257-6.255c1.246-0.837,1.927-2.241,2.964-3.292    c1.45-0.744,1.898-2.49,3.621-2.963c4.265,2.097,9,3.732,13.169,5.926c2.314,0.868,4.472,1.895,6.586,2.964    c2.243,0.938,4.053,2.311,6.255,3.292c0.76,0.994,2.063,1.45,2.636,2.633c1.239,0.625,1.506,2.226,3.618,1.977    c1.423,0.214,1.849-0.57,2.634-0.988c0.413-0.907,1.682-0.954,2.306-1.646c0.252-1.691-0.569-2.501,0-3.621    c2.925-4.76,3.891-11.475,4.939-18.107c1.503-6.288,2.604-12.983,3.62-19.756c0.039-1.828,0.704-3.031,0.661-4.938    c0.718-1.256,0.496-3.454,1.316-4.61c0.053-1.813,0.714-3.017,0.986-4.609c0.491-1.483,0.602-3.349,1.32-4.609    c-0.12-1.984,0.776-2.955,0.655-4.939c0.709-0.278-0.121-2.099,0.66-2.304c0.201-0.786-0.413-2.388,0.331-2.635    c0.038-0.946-0.18-2.153,0.329-2.635c0.198-0.785-0.417-2.387,0.329-2.631C112.092,15.202,111.343,13.975,111.002,12.338z     M19.803,50.531c-2.686-0.497-4.516-1.85-7.244-2.303c0.59-1.059,2.85-0.443,3.622-1.317c1.65,0.112,2.304-0.771,3.953-0.658    C20.382,48.039,19.611,48.804,19.803,50.531z M28.032,54.152c-1.709-0.811-3.741-1.303-4.606-2.963v-5.927    c1.919-0.053,2.832-1.115,4.937-0.987C28.064,47.378,27.948,50.663,28.032,54.152z M31.655,55.799    c-1.121-3.707-1.033-8.624-2.301-12.182c1.86-0.222,3.62-0.547,4.936-1.316c0.384-0.055,0.586,0.071,0.66,0.327    c-0.229,4.539-0.923,10.837,0.33,14.819C33.843,57.125,32.908,56.304,31.655,55.799z M47.46,38.679    c1.293-0.242,2.386-0.687,3.621-0.988c0.056,3.239-0.578,7.164,2.305,7.572c2.441,0.027,2.068-2.76,2.303-4.938    c-0.102-1.322-0.228-2.624-0.989-3.293c1.581-1.032,3.43-1.386,5.269-1.975c1.606-0.514,2.889-0.873,4.282-1.317    c0.403-0.129,0.471-0.302,0.986-0.329c0.328-0.018,0.216-0.292,0.328-0.329c1.809-0.598,3.799-1.002,5.601-1.646    c1.868-0.671,3.636-1.709,5.596-1.976c-0.034-0.396,0.479-0.202,0,0c-4.627,3.603-9.476,6.985-13.831,10.865    c-2.37,1.798-4.486,3.849-6.91,5.596c-0.956,1.133-2.208,1.962-3.293,2.965c-1.292,0.792-2.08,2.089-3.623,2.633    c-0.828-1.587-1.408-3.416-1.644-5.598V38.679z M38.569,41.312c1.613-0.583,3.624-0.763,4.938-1.645    c0.384-0.054,0.587,0.072,0.657,0.327c-0.045,4.126-0.946,8.187,0,11.525c0.297,0.58,0.799,0.962,0.989,1.646    c0.63,0.138,1.42,0.12,1.317,0.987c-2.068,0.785-3.149,2.559-5.269,3.295c-2.585-1.806-2.354-6.424-2.3-10.867    C38.498,45.114,38.544,43.207,38.569,41.312z M54.7,74.896c-1,0.314-1.323,1.309-2.961,0.987c-1.884,1.89-3.548,4.781-5.268,6.257    c-0.334,0.285-0.965,0.312-1.317,0.657c-0.5,0.496-0.795,1.382-1.316,1.975c-0.613,0.704-1.453,0.997-1.973,1.646    c-0.107,0.129,0.066,0.503,0,0.659c-0.05,0.1-0.576,0.214-0.663,0.329c-0.771,1.075-1.312,2.247-1.973,3.292    c-1.007-0.713,0.316-1.854,0-2.963V76.54c0.699-4.41-0.048-8.459,1.317-11.851c0.865-1.113,2.677-1.275,3.952-1.977    c0.904-1.069,2.369-1.58,3.622-2.303c2.203-1.859,4.039-4.082,6.253-5.927c0.644-0.563,1.841-0.571,2.635-0.986    c2.861-2.408,5.724-4.81,8.558-7.243c1.488-1.15,3.046-2.227,4.284-3.624c1.671-1.071,3.284-2.2,4.607-3.62    c1.173-0.146,1.443-1.192,2.305-1.646c0.956-0.362,1.583-1.052,2.305-1.646c1.634-0.999,3.021-2.245,4.938-2.963    c1.287-1.345,3.291-1.977,4.611-3.293c2.084-0.658,3.079-2.41,5.269-2.963c-0.037-0.398,0.475-0.201,0,0    C87.123,34.334,81.131,42.94,73.8,50.203c-0.259,1.498-1.782,1.731-2.305,2.962c-1.201,0.665-1.782,1.952-2.635,2.963    c-1.25,0.505-1.384,2.128-2.634,2.633c-0.503,1.364-1.911,1.821-2.302,3.295C60.153,65.639,58.16,71,54.7,74.896z M62.276,72.261    c0.547-0.659,0.883-1.53,1.975-1.646c-0.253,1.241,0.4,1.574,0.327,2.634C63.756,72.975,63.285,72.347,62.276,72.261z     M99.152,47.237c-1.159,7.957-2.438,15.783-4.284,23.049c-0.256,1.278-1.036,2.035-1.644,2.962    c-0.429,4.508-1.022,8.857-2.304,12.511c-1.384-0.373-2.133-1.378-3.293-1.975c-1.143-0.612-2.448-1.064-3.293-1.976    c-2.77-0.632-4.516-2.288-7.244-2.964c-0.471-1.172-0.333-2.957-1.315-3.621c-1.862-0.435-1.636,1.22-2.635,1.647    c-1.794-0.51-3.063-1.543-4.94-1.975c-0.636-2.105-1.645-3.841-2.301-5.927c0.794-2.717,3.524-3.494,4.606-5.927    c1.734-1.668,2.948-3.858,4.611-5.595c2.824-4.091,6.495-7.334,9.549-11.195c3.564-3.349,6.492-7.337,9.875-10.866    c0.169-0.703,0.863-0.793,1.318-1.318c0.848-0.969,1.347-1.913,2.305-2.962c0.245-0.267,0.954-0.351,0.99-0.987    c0.025-0.502,2.013-2.283,2.632-2.964c0.857-0.946,1.621-2.185,2.303-2.634c0.226-0.148,0.356,0.194,0.331,0.329    C102.813,32.464,100.294,39.164,99.152,47.237z" fill="#FFFFFF"/>
	</g>
</g>
<g>
</g>
<g>
</g>
<g>
</g>
<g>
</g>
<g>
</g>
<g>
</g>
<g>
</g>
<g>
</g>
<g>
</g>
<g>
</g>
<g>
</g>
<g>
</g>
<g>
</g>
<g>
</g>
<g>
</g>
</svg>
