<?xml version="1.0" encoding="iso-8859-1"?>
<!-- Generator: Adobe Illustrator 19.0.0, SVG Export Plug-In . SVG Version: 6.00 Build 0)  -->
<svg xmlns="http://www.w3.org/2000/svg" xmlns:xlink="http://www.w3.org/1999/xlink" version="1.1" id="Capa_1" x="0px" y="0px" viewBox="0 0 95 95" style="enable-background:new 0 0 95 95;" xml:space="preserve" width="512px" height="512px">
<g id="twitter_1_">
	<g>
		<path style="fill-rule:evenodd;clip-rule:evenodd;" d="M94.835,23.237c-0.915-1.481-3.675-1.12-5.692-1.5h-4.494    c0.572-1.426,1.382-2.613,2.098-3.896c0.222-1.771,1.026-2.966,0.899-5.093c0.524-0.673,0.711-1.685,1.197-2.398    c0.418-0.583,0.98-1.928,0.299-2.695c-0.205-0.893-1.192-1.005-2.396-0.898c-0.355,0.146-0.681,0.317-0.897,0.599    c-1.81,1.75-3.148,4.099-5.096,5.692c-0.037,0.033-0.249-0.002-0.3,0c-0.349,0.019-0.131,0.188-0.301,0.3    c-0.591,0.394-1.04,0.615-1.494,0.9c-1.15,0.712-2.211,1.799-3.6,2.097c-2.139-0.855-4.677-1.317-7.489-1.497    c-4.678,0.412-9.314,0.871-12.285,2.994c-3.682,1.416-5.971,4.214-8.691,6.594c-0.2,1.296-1.383,1.609-1.496,2.996    c-0.019,0.183-0.047,0.353-0.299,0.3c0.174,0.973-0.205,1.393-0.299,2.097c-0.002,0.537,0.807,1.743,0,2.099    c-3.323-0.482-6.006-2.546-8.691-3.897c-2.901-1.457-5.937-2.439-8.388-4.492c-2.894-1.303-5.094-3.301-7.19-5.394    c-0.841-1.26-2.193-2.004-2.7-3.598c-1.532-0.665-0.708-3.689-2.995-3.595c-1.276-0.174-1.393,0.807-1.797,1.498    c-0.285,0.915-1.46,0.939-1.502,2.097c-0.016,0.185-0.043,0.356-0.298,0.302c-0.689,4.404-2.133,8.055-2.098,13.182    c0.521,1.678,1.413,2.986,2.396,4.196c-1.69,0.205-2.894,0.898-3.596,2.099c-0.241,4.341,1.528,6.663,2.999,9.286    c0.543,1.556,1.422,2.771,2.397,3.896c0.07,0.928,0.833,1.165,1.196,1.799c0.075,0.427,0.495,0.505,0.602,0.9    c-0.162,0.43,1.167,0.73,0.297,0.896c-1.67,0.527-4.109,0.285-5.093,1.5c-0.442,1.128-0.442,3.368,0,4.494    c0.138,0.96,1.141,1.057,1.198,2.097c2.019,1.683,4.374,3.021,6.595,4.497c2.324,0.67,4.899,1.091,7.49,1.497    c-0.414,1.385-1.367,2.228-2.397,2.995c-3.154,1.542-7.475,1.916-11.089,2.996c-2.244,0.152-3.863,0.93-6.29,0.901    c-1.344,0.513-3.452,0.302-4.495,0.898c-0.493,0.278-0.411,0.388-0.9,0.896c-0.541,1.662,0.449,2.991,1.796,3.597    c-0.02,1.021,0.883,1.118,1.501,1.499c0.358,0.741,1.025,1.172,1.797,1.498c2.203,1.891,5.126,3.066,7.792,4.496    c3.353,0.74,6.665,1.524,10.188,2.097c3.622,0.472,7.686,0.503,11.385,0.898h3.895c2.066,0.533,4.977,0.218,7.49,0.3    c0.386-0.412,1.304-0.296,2.099-0.3c2.111-1.087,4.835-1.555,6.593-2.995c2.322-0.975,3.999-2.595,6.293-3.596    c3.502-3.092,7.832-5.354,10.185-9.59c0.83-0.768,1.419-1.776,1.801-2.995c1.067-0.632,1.556-1.838,2.394-2.697    c1.635-1.661,2.857-3.737,4.196-5.694c1.29-2.006,2.33-4.263,3.597-6.291c-0.039-1.638,1.235-1.96,1.198-3.597    c0.782-0.915,0.715-2.679,1.501-3.596c-0.135-1.03,0.117-1.678,0.298-2.398c0.189-5.181-0.192-9.795-1.202-13.78    c2.376-0.626,4.776-1.221,6.595-2.398C93.671,27.584,95.582,25.979,94.835,23.237z M81.056,39.716    c-0.622,3.476-2.491,5.701-4.198,8.091c0.236,1.532-0.421,2.175-0.298,3.596c-0.64,1.26-1.159,2.636-1.502,4.193    c-0.82,1.077-1.341,2.451-2.094,3.596c-1.483,2.216-3.145,4.248-4.795,6.294c-1.529,2.266-3.689,3.901-5.396,5.991    c-1.699,1.994-3.809,3.579-5.69,5.394c-1.914,0.685-3.594,1.605-5.093,2.697c-0.938,0.363-1.871,0.726-2.695,1.199    c-0.716,0.587-2.02,0.581-2.701,1.198c-4.395,0.597-9.302,0.686-14.378,0.599c-4.168-0.426-8.552-0.64-12.288-1.499    c-3.731-0.765-6.112-2.878-9.289-4.194c0.619-0.977,2.566-0.626,3.896-0.898c0.125-0.672,1.592-0.009,1.795-0.6    c1.041,0.24,1.153-0.447,2.1-0.299c2.279-0.814,4.976-1.219,6.893-2.398c1.14-0.556,1.641-1.752,2.696-2.395    c0.134-0.767,0.418-1.38,0.897-1.799c0.193-1.109,0.814-1.784,0.601-3.296c0.45-0.848,1.21-1.385,1.198-2.698    c-0.3-0.594-0.519-1.279-1.198-1.499c-0.106-0.792-1.526-0.271-1.797-0.897c-1.031,0.13-1.682-0.119-2.397-0.302    c-0.622-0.176-1.97,0.371-2.098-0.299c-3.403-0.093-5.255-1.738-7.491-2.995c1.739-1.055,4.172-1.422,5.391-2.997    c2.088-0.31,4.277-0.522,4.497-2.697c0-2.895-3.118-2.673-5.391-3.297c-3.128-2.666-4.831-6.757-7.193-10.187    c0.963-0.636,2.283-0.913,2.994-1.797c1.836,0.235,2.184-1.014,2.698-2.099c0.076-1.974-1.345-2.449-2.398-3.297    c-1.045-0.851-1.92-1.87-2.695-2.994c-0.012-3.309-0.087-6.68,0.3-9.59c0.254-0.056,0.283,0.116,0.298,0.299    c0.915,1.785,2.261,3.133,3.297,4.794c2.15,1.446,3.742,3.45,6.291,4.497c1.829,1.668,4.482,2.511,6.295,4.194    c2.429,1.065,4.685,2.304,6.889,3.595c2.708,0.789,4.27,2.722,8.091,2.397c0.804-0.392,1.594-0.804,2.397-1.2    c1.043-1.842-0.235-4.361,0.598-6.591c1.032-2.663,3.225-4.17,5.093-5.991c1.171-0.626,2.242-1.356,3.296-2.1    c1.404-0.393,2.727-0.871,3.896-1.497c1.52-0.078,2.882-0.313,4.197-0.599h5.093c0.987,0.211,1.916,0.482,2.995,0.599    c0.843,0.554,1.535,1.264,2.696,1.497c3.19,2.805,5.131,6.858,5.697,12.288C80.554,35.684,81.263,37.261,81.056,39.716z     M82.25,16.943c-0.521,1.377-0.934,2.859-2.398,3.297c-0.07-0.427-0.49-0.505-0.597-0.898c-0.047-0.846,0.847-0.751,1.198-1.198    C81.114,17.802,81.447,17.14,82.25,16.943C82.222,16.582,82.687,16.758,82.25,16.943z M60.078,29.228    c0.656,0.544,1.146,1.252,2.098,1.5c0.406,0.893,1.272,1.323,2.398,1.497c0.189-0.608,1.399-0.196,1.496-0.898    c0.703-0.094,0.672-0.927,1.199-1.2c-0.074-2.223-0.521-4.071-1.498-5.393C62.706,23.025,58.995,24.894,60.078,29.228z" fill="#FFFFFF"/>
	</g>
</g>
<g>
</g>
<g>
</g>
<g>
</g>
<g>
</g>
<g>
</g>
<g>
</g>
<g>
</g>
<g>
</g>
<g>
</g>
<g>
</g>
<g>
</g>
<g>
</g>
<g>
</g>
<g>
</g>
<g>
</g>
</svg>
