<?xml version="1.0" encoding="iso-8859-1"?>
<!-- Generator: Adobe Illustrator 19.0.0, SVG Export Plug-In . SVG Version: 6.00 Build 0)  -->
<svg xmlns="http://www.w3.org/2000/svg" xmlns:xlink="http://www.w3.org/1999/xlink" version="1.1" id="Capa_1" x="0px" y="0px" viewBox="0 0 100 100" style="enable-background:new 0 0 100 100;" xml:space="preserve" width="512px" height="512px">
<g id="globe_1_">
	<g>
		<path style="fill-rule:evenodd;clip-rule:evenodd;" d="M95.638,24.368c-0.384-0.186-0.529-0.607-0.568-1.135    c-0.635-0.688-1.191-1.458-1.702-2.271c-0.493-0.925-1.42-1.419-1.705-2.554c-1.442-1.206-2.767-2.529-3.971-3.973    c-1.455-1.288-3.134-2.354-4.54-3.69c-1.341-1.306-2.866-2.435-4.257-3.688c-1.484-1.258-2.755-2.732-4.542-3.689    c-2.032-0.332-3.483-1.247-5.675-1.419c-2.271-0.096-3.958-0.772-6.526-0.568c-4.131-0.254-10.008-0.59-14.192-0.283    c-0.173,0.013-0.332,0.044-0.282,0.283H47.11c-3.67-0.263-6.117,0.696-9.081,1.135c-0.183,0.576-1.327,0.187-1.42,0.852    c-0.9-0.047-0.948,0.755-1.986,0.568c-3.623,2.054-7.058,4.291-10.499,6.527c-3.719,1.959-6.403,4.949-9.367,7.662    c-1.17,1.953-2.721,3.523-3.69,5.676c-0.256,1.351-1.694,1.522-1.985,2.837c-0.984,0.623-1.215,2.001-2.27,2.554    c-0.375,1.14-1.115,1.913-1.705,2.838c-0.49,1.116-1.012,2.201-1.699,3.123c-0.29,1.319-0.85,2.368-1.42,3.405    c0.139,0.896-0.514,1.002-0.286,1.986c-0.75,0.101-0.254,1.446-0.849,1.703c-0.184,2.56-0.535,4.952-0.853,7.38    c0.466,3.128,0.108,7.079,0.853,9.932c0.174,3.42,1.225,5.962,1.701,9.082c1.305,1.913,2.085,4.348,3.407,6.243    c0.292,1.316,1.003,2.211,1.703,3.123c0.33,0.424,0.354,1.16,0.851,1.418c0.488,0.364,0.771,0.932,0.851,1.703    c7.629,7.977,16.934,14.283,30.082,16.744c14.019,2.85,29.986,0.124,39.733-4.824c1.362-1.19,2.963-2.141,4.537-3.121    c1.546-1.577,2.77-3.475,4.54-4.826c0.532-1.459,1.619-2.356,2.271-3.689c0.889-1.193,1.42-2.744,2.556-3.69    c-0.043-0.704,0.146-1.177,0.567-1.418c0.155-0.505,0.144-1.178,0.566-1.42c0.357-0.968,0.61-2.038,1.138-2.836    c0.599-2.047,1.262-4.033,1.986-5.961c1.109-4.282,2.041-8.742,2.555-13.621C100.424,41.151,98.936,31.855,95.638,24.368z     M50.8,51.896c-6.417-0.112-13.326,0.27-19.3-0.284c-0.665-6.295,0.214-13.374,0.853-19.297    c5.494,0.746,11.443,1.044,17.311,1.418C49.836,39.995,50.287,45.973,50.8,51.896z M38.595,8.759    c1.743-0.716,4.111-0.809,5.675-1.703c1.05-0.181,2.829,0.367,3.408-0.285h0.851c-0.775,7.095,0.341,14.038,0.569,21.002    c-5.079-0.504-10.771-0.393-15.611-1.136C34.599,20.088,36.49,14.316,38.595,8.759z M22.989,19.827    c0.578-0.495,0.555,0.212,1.136-0.283c0.359-0.965,1.006-1.642,1.416-2.555c1.033-0.859,2.243-1.542,2.84-2.838    c2.098-1.021,3.342-2.899,5.674-3.688c-1.885,4.83-3.798,9.636-4.824,15.325c-3.468-0.218-5.506-1.874-8.797-2.271    C20.956,21.958,22.498,21.417,22.989,19.827z M9.648,38.841c0.782-1.113,1.497-2.287,1.705-3.973    c1.298-0.784,1.612-2.548,2.553-3.69c0.964-1.118,1.768-2.394,2.836-3.405c0.099-0.373,0.501-0.447,0.569-0.851    c3.226,1.786,6.686,3.341,10.501,4.539c-1.047,6.142-1.579,12.801-1.701,19.866c-6.617-0.195-12.932-0.694-18.163-2.271    C7.7,44.836,9.138,42.302,9.648,38.841z M17.595,76.87c-0.591-0.544-1.182-1.089-1.417-1.988    c-1.366-0.904-1.751-2.789-2.841-3.972c-1.401-3.139-2.829-6.252-3.972-9.649c-0.169-0.737,0.112-1.021,0.853-0.851    c-0.828-1.916-2.215-3.273-2.271-5.959c5.551,1.448,12.341,1.658,18.445,2.554c0.106,6.703,1.56,12.062,2.555,17.877    c-3.087,1.266-6.444,2.258-9.364,3.69C18.54,78.386,18.169,77.526,17.595,76.87z M29.231,86.801    c-0.752-0.571-1.591-1.057-2.553-1.418c-0.518-0.808-1.561-1.089-2.271-1.703c-0.589-0.737-1.661-0.99-1.987-1.988    c1.289-0.224,2.625-0.4,3.691-0.85c1.082-0.429,2.537-0.487,3.402-1.135c0.33-0.045,0.505,0.062,0.57,0.283    c0.559,2.753,1.604,5.019,1.987,7.947C31.176,87.505,30.365,86.991,29.231,86.801z M31.5,57.005    c6.315,0.307,12.912,0.33,19.583,0.283c0.188,4.255,0.679,8.211,0.852,12.487c-2.998,0.599-6.357,0.835-9.364,1.418    c-1.113,0.686-3.147,0.451-4.259,1.135c-1.859-0.06-2.622,0.973-4.541,0.853C33.115,67.689,31.758,62.896,31.5,57.005z     M47.11,90.208c-1.06,0.304-0.81-0.705-1.704-0.568H42.57c-1.603-0.469-2.905-0.415-4.259-0.568    c-0.445-0.782-0.79-1.668-1.134-2.553c-0.3-0.835-0.39-1.88-0.853-2.555c0-1.134-0.565-1.703-0.565-2.838    c-0.49-0.648-0.269-2-0.853-2.554c0.794-1.097,2.65-1.137,4.259-1.419c1.306-0.583,3.382-0.398,4.823-0.851    c2.48,0.209,4.078-0.462,6.53-0.284c0.456,0.08,0.487-0.269,0.848-0.284h0.569c1.146-0.012,0.238,2.031,0.851,2.555    c-0.142,1.274,0.143,2.127,0.285,3.122v3.689c0.215,1.674,0.529,3.256,0.852,4.826C52.049,90.418,49.403,90.137,47.11,90.208z     M52.786,8.192c2.479,0.168,5.646-0.349,7.662,0.284c1.797,0.471,1.976,2.565,3.405,3.404c0.681,1.594,1.938,2.606,2.554,4.258    c1.427,3.113,3.017,6.063,3.691,9.933c-4.608,1.257-9.722,2.008-15.893,1.703C53.619,21.359,52.945,15.035,52.786,8.192z     M70.098,78.571c-0.163,1.352-0.856,2.175-0.853,3.689c-1.093,1.838-1.246,4.618-2.553,6.244c-2.417,0.8-5.871,0.564-8.229,1.419    c-0.504-3.551-0.984-9.368-0.854-14.474c4.552,0.107,8.811-0.083,13.055-0.284C71.097,75.95,70.212,77.435,70.098,78.571z     M72.082,68.923c-5.096,0.012-10.022,0.192-14.759,0.566c-0.773-3.764-0.913-8.165-1.13-12.485    c5.527-0.528,10.865-1.242,15.889-2.271h0.568C72.635,59.638,72.845,64.766,72.082,68.923z M72.651,50.193    c-5.672,0.475-11.127,1.17-17.028,1.419c-0.125-6.214-0.741-11.933-1.136-17.878c6.201,0.241,11.622-0.299,16.177-1.703    c0.331,0.046,0.505-0.062,0.57-0.284c0.241-0.052,0.265,0.112,0.282,0.284C72.492,37.485,72.731,43.68,72.651,50.193z     M71.8,16.138c-0.202-0.44-0.526-0.893-0.852-1.42c-0.264-0.422-0.52-0.845-0.85-1.418c-0.123-0.209-0.123-0.611-0.286-0.852    c0.065,0.092-1.872-1.537-0.851-1.419c2.963,1.39,5.349,3.354,8.513,4.542c1.361,1.951,3.823,2.799,5.108,4.824    c-0.822,1.068-2.415,1.368-3.402,2.27c-1.667,0.228-2.46,1.327-4.259,1.419C74.248,21.177,72.944,18.619,71.8,16.138z     M78.04,82.261c-0.703-0.043-0.876,0.447-1.417,0.567c-0.594,0.353-1.066,0.826-1.419,1.42c-0.659-0.866,0.507-2.321,0.566-3.405    c0.296-1.22,0.518-2.513,0.853-3.69c-0.079-0.458,0.269-0.488,0.287-0.851c1.884,0.291,2.966,1.383,4.54,1.987    C80.756,80.055,79.126,80.886,78.04,82.261z M91.097,55.017c-0.102,0.846-0.453,1.44-0.85,1.988    c-0.509,6.396-2.572,11.241-4.824,15.892c-2.695-0.805-4.867-2.135-7.383-3.122c0.676-5.835-0.13-11.217,0.287-15.041    c4.853-0.067,8.3-1.539,11.636-3.122c0.508,0.036,0.595-0.347,1.134-0.283V55.017z M83.717,49.626H78.04    c0.216-7.213-0.616-13.383-1.417-19.582c3.319-1.411,6.647-2.812,9.364-4.826c0.231,0.054,0.285,0.286,0.568,0.284    c0.864,3.392,2.38,6.135,3.121,9.65c0.702,3.461,1.374,6.951,1.42,11.067C88.772,47.488,86.107,48.418,83.717,49.626z" fill="#FFFFFF"/>
	</g>
</g>
<g>
</g>
<g>
</g>
<g>
</g>
<g>
</g>
<g>
</g>
<g>
</g>
<g>
</g>
<g>
</g>
<g>
</g>
<g>
</g>
<g>
</g>
<g>
</g>
<g>
</g>
<g>
</g>
<g>
</g>
</svg>
